HIERARCHY
ROOT Hips
{
	OFFSET 0.000000 0.000000 0.000000
	CHANNELS 6 Xposition Yposition Zposition Zrotation Yrotation Xrotation 
	JOINT LHipJoint
	{
		OFFSET 0.000000 0.000000 0.000000
		CHANNELS 3 Zrotation Yrotation Xrotation
		JOINT LeftUpLeg
		{
			OFFSET 1.363060 -1.794630 0.839290
			CHANNELS 3 Zrotation Yrotation Xrotation
			JOINT LeftLeg
			{
				OFFSET 2.448110 -6.726130 0.000000
				CHANNELS 3 Zrotation Yrotation Xrotation
				JOINT LeftFoot
				{
					OFFSET 2.562200 -7.039590 0.000000
					CHANNELS 3 Zrotation Yrotation Xrotation
					JOINT LeftToeBase
					{
						OFFSET 0.157640 -0.433110 2.322550
						CHANNELS 3 Zrotation Yrotation Xrotation
						End Site
						{
							OFFSET 0.000000 0.000000 0.000000
						}
					}
				}
			}
		}
	}
	JOINT RHipJoint
	{
		OFFSET 0.000000 0.000000 0.000000
		CHANNELS 3 Zrotation Yrotation Xrotation
		JOINT RightUpLeg
		{
			OFFSET -1.305520 -1.794630 0.839290
			CHANNELS 3 Zrotation Yrotation Xrotation
			JOINT RightLeg
			{
				OFFSET -2.542530 -6.985550 0.000000
				CHANNELS 3 Zrotation Yrotation Xrotation
				JOINT RightFoot
				{
					OFFSET -2.568260 -7.056230 0.000000
					CHANNELS 3 Zrotation Yrotation Xrotation
					JOINT RightToeBase
					{
						OFFSET -0.164730 -0.452590 2.363150
						CHANNELS 3 Zrotation Yrotation Xrotation
						End Site
						{
							OFFSET 0.000000 0.000000 0.000000
						}
					}
				}
			}
		}
	}
	JOINT LowerBack
	{
		OFFSET 0.000000 0.000000 0.000000
		CHANNELS 3 Zrotation Yrotation Xrotation
		JOINT Spine
		{
			OFFSET 0.028270 2.035590 -0.193380
			CHANNELS 3 Zrotation Yrotation Xrotation
			JOINT Spine1
			{
				OFFSET 0.056720 2.048850 -0.042750
				CHANNELS 3 Zrotation Yrotation Xrotation
				JOINT Neck
				{
					OFFSET 0.000000 0.000000 0.000000
					CHANNELS 3 Zrotation Yrotation Xrotation
					JOINT Neck1
					{
						OFFSET -0.054170 1.746240 0.172020
						CHANNELS 3 Zrotation Yrotation Xrotation
						JOINT Head
						{
							OFFSET 0.104070 1.761360 -0.123970
							CHANNELS 3 Zrotation Yrotation Xrotation
							End Site
							{
								OFFSET 0.000000 0.000000 0.000000
							}
						}
					}
				}
				JOINT LeftShoulder
				{
					OFFSET 0.000000 0.000000 0.000000
					CHANNELS 3 Zrotation Yrotation Xrotation
					JOINT LeftArm
					{
						OFFSET 3.362410 1.200890 -0.311210
						CHANNELS 3 Zrotation Yrotation Xrotation
						JOINT LeftForeArm
						{
							OFFSET 4.983000 -0.000000 -0.000000
							CHANNELS 3 Zrotation Yrotation Xrotation
							JOINT LeftHand
							{
								OFFSET 3.483560 -0.000000 -0.000000
								CHANNELS 3 Zrotation Yrotation Xrotation
								JOINT LeftFingerBase
								{
									OFFSET 0.000000 0.000000 0.000000
									CHANNELS 3 Zrotation Yrotation Xrotation
									JOINT LeftHandIndex1
									{
										OFFSET 0.715260 -0.000000 -0.000000
										CHANNELS 3 Zrotation Yrotation Xrotation
										End Site
										{
											OFFSET 0.000000 0.000000 0.000000
										}
									}
								}
								JOINT LThumb
								{
									OFFSET 0.000000 0.000000 0.000000
									CHANNELS 3 Zrotation Yrotation Xrotation
									End Site
									{
										OFFSET 0.000000 0.000000 0.000000
									}
								}
							}
						}
					}
				}
				JOINT RightShoulder
				{
					OFFSET 0.000000 0.000000 0.000000
					CHANNELS 3 Zrotation Yrotation Xrotation
					JOINT RightArm
					{
						OFFSET -3.136600 1.374050 -0.404650
						CHANNELS 3 Zrotation Yrotation Xrotation
						JOINT RightForeArm
						{
							OFFSET -5.241900 -0.000000 -0.000000
							CHANNELS 3 Zrotation Yrotation Xrotation
							JOINT RightHand
							{
								OFFSET -3.444170 -0.000000 -0.000000
								CHANNELS 3 Zrotation Yrotation Xrotation
								JOINT RightFingerBase
								{
									OFFSET 0.000000 0.000000 0.000000
									CHANNELS 3 Zrotation Yrotation Xrotation
									JOINT RightHandIndex1
									{
										OFFSET -0.622530 -0.000000 -0.000000
										CHANNELS 3 Zrotation Yrotation Xrotation
										End Site
										{
											OFFSET 0.000000 0.000000 0.000000
										}
									}
								}
								JOINT RThumb
								{
									OFFSET 0.000000 0.000000 0.000000
									CHANNELS 3 Zrotation Yrotation Xrotation
									End Site
									{
										OFFSET 0.000000 0.000000 0.000000
									}
								}
							}
						}
					}
				}
			}
		}
	}
}
MOTION
Frames: 13
Frame Time: 0.008333
-1.044567 17.030993 -1.259257 7.681470 85.446449 16.182009 -11.710806 3.904843 -0.747819 -0.249092 10.565972 -2.384210 -0.413227 2.003878 33.667426 0.436489 -3.203619 12.901926 -1.210400 0.000000 -81.403500 8.187282 -1.333002 2.806141 15.614739 1.295756 -22.494038 3.111841 1.680757 -3.605784 -1.224256 -8.340448 5.143606 -2.995200 -0.000000 -11.888200 2.261329 -2.713731 -2.441563 -0.405834 -3.027370 -3.428385 -7.687584 -3.094185 0.306861 10.737415 -5.887018 -6.032039 -4.699462 -0.370718 0.401332 0.000000 0.000000 0.000000 -6.330713 3.587804 1.882344 -60.586337 -13.344018 12.051487 -3.256565 -32.121599 -0.007265 4.815760 0.463296 0.016623 -0.107866 0.098068 0.000000 0.000000 0.000000 0.000000 0.000000 0.000000 0.000000 21.484459 -4.723137 0.869687 69.835494 -3.510097 -9.457732 3.844900 12.064651 0.006799 0.658570 4.130112 0.021250 0.081522 -0.037458 -0.000000 0.000000 0.000000 0.000000 0.000000 0.000000 0.000000 
-0.887031 17.053214 -1.206306 2.824074 84.990317 11.396023 -11.865911 3.860070 -0.732643 0.445079 10.636313 -3.685428 -0.207221 2.127413 36.190665 0.577524 -3.778673 15.506198 -1.655400 -0.000000 -79.856701 8.038041 -1.388470 2.883046 16.133173 1.916788 -21.959037 3.192907 1.674734 -3.173685 -1.195512 -8.072188 4.569808 -2.834700 -0.000001 -9.922600 2.668297 -2.607163 -2.550922 -0.321722 -2.956535 -3.455730 -7.642559 -3.025822 0.312208 10.652211 -5.790561 -6.076792 -4.677675 -0.369332 0.392847 0.000000 0.000000 0.000000 -6.364061 3.894774 1.856588 -61.153154 -12.418207 11.842512 -3.255632 -31.278032 -0.006930 4.735871 0.620871 0.023273 -0.104263 0.091331 0.000000 0.000000 0.000000 0.000000 0.000000 0.000000 0.000000 21.263039 -4.517471 0.856866 69.972495 -3.141758 -9.263330 3.854019 12.246037 0.006877 0.718153 4.121114 0.023361 0.081707 -0.038753 -0.000000 0.000000 0.000000 0.000000 0.000000 0.000000 0.000000 
-0.733526 17.073584 -1.152055 -0.797766 84.522847 7.854228 -11.977667 3.788865 -0.706485 0.999900 10.554104 -5.026907 -0.024590 2.233833 38.730378 0.734696 -4.170266 17.924680 -2.064600 0.000001 -77.171400 7.917546 -1.429829 2.938364 16.629637 2.423116 -21.400759 3.267588 1.678478 -2.838300 -1.169174 -7.801481 3.965359 -2.671100 -0.000000 -8.060100 3.020419 -2.513776 -2.641332 -0.249956 -2.894175 -3.479804 -7.599755 -2.965874 0.310173 10.584880 -5.691109 -6.118639 -4.656240 -0.367984 0.384871 0.000000 0.000000 0.000000 -6.357948 4.144430 1.841501 -61.703740 -11.456502 11.624737 -3.253972 -30.443528 -0.006604 4.622775 0.801791 0.030422 -0.100667 0.084840 0.000000 0.000000 0.000000 0.000000 0.000000 0.000000 0.000000 21.061424 -4.310372 0.850877 70.124250 -2.729499 -8.985319 3.856843 12.475357 0.006950 0.786044 4.114724 0.025873 0.081601 -0.040240 -0.000000 0.000000 0.000000 0.000000 0.000000 0.000000 0.000000 
-0.584041 17.091855 -1.096866 -3.424729 84.061184 5.312978 -12.055689 3.695179 -0.672386 1.422462 10.333050 -6.401909 0.133502 2.328709 41.268144 0.895903 -4.305554 20.028580 -2.365400 0.000000 -73.499300 7.819348 -1.459276 2.973529 17.096076 2.820934 -20.802735 3.336140 1.695719 -2.633394 -1.144504 -7.536755 3.362358 -2.511900 -0.000000 -6.312700 3.315030 -2.433767 -2.711906 -0.190842 -2.840120 -3.500726 -7.560459 -2.914272 0.299666 10.535414 -5.592888 -6.157358 -4.636411 -0.366764 0.377468 0.000000 0.000000 0.000000 -6.326192 4.329080 1.837852 -62.223594 -10.457572 11.415081 -3.252026 -29.635997 -0.006279 4.473413 1.002313 0.037675 -0.097138 0.078553 0.000000 0.000000 0.000000 0.000000 0.000000 0.000000 0.000000 20.885641 -4.106949 0.852011 70.281333 -2.275463 -8.612592 3.853263 12.757976 0.007024 0.859642 4.114828 0.028586 0.081202 -0.041933 -0.000000 0.000000 0.000000 0.000000 0.000000 0.000000 0.000000 
-0.438280 17.107994 -1.041231 -5.359588 83.613568 3.469846 -12.108483 3.584116 -0.633155 1.735070 9.996197 -7.808164 0.270465 2.418322 43.781405 1.052644 -4.116862 21.722726 -2.488700 -0.000000 -69.219200 7.737472 -1.478233 2.992855 17.535219 3.127890 -20.153464 3.400308 1.730075 -2.585136 -1.120617 -7.284908 2.787465 -2.363200 -0.000000 -4.643500 3.565234 -2.365953 -2.765054 -0.141665 -2.794285 -3.518227 -7.527151 -2.870853 0.284720 10.502485 -5.469975 -6.194122 -4.619314 -0.365686 0.370080 0.000000 0.000000 0.000000 -6.294615 4.509373 1.847401 -62.694849 -9.499981 11.293275 -3.254622 -28.823153 -0.005968 4.292101 1.214776 0.044431 -0.094058 0.072606 0.000000 0.000000 0.000000 0.000000 0.000000 0.000000 0.000000 20.737829 -3.876696 0.854765 70.442781 -1.812159 -8.219439 3.844463 13.116047 0.007107 0.955346 4.122119 0.032098 0.080410 -0.043837 -0.000000 0.000000 0.000000 0.000000 0.000000 0.000000 0.000000 
-0.296098 17.122076 -0.985082 -6.684314 83.185285 2.236425 -12.140969 3.461178 -0.591579 1.940979 9.560825 -9.229088 0.392562 2.507289 46.239742 1.200724 -3.544727 22.945440 -2.378900 0.000000 -64.670100 7.671571 -1.487729 2.995244 17.933469 3.342607 -19.452802 3.459708 1.779599 -2.688725 -1.092701 -7.026602 2.261109 -2.222700 0.000000 -3.129300 3.760837 -2.308816 -2.798458 -0.104456 -2.754161 -3.532606 -7.499399 -2.833219 0.262186 10.487569 -5.356552 -6.228945 -4.605739 -0.364863 0.362901 0.000000 0.000000 0.000000 -6.259402 4.629887 1.866376 -63.119214 -8.519336 11.217360 -3.257746 -28.049726 -0.005651 4.075929 1.434751 0.050490 -0.091137 0.066773 0.000000 0.000000 0.000000 0.000000 0.000000 0.000000 0.000000 20.626156 -3.658369 0.863290 70.592958 -1.313286 -7.723628 3.829181 13.533350 0.007200 1.048093 4.143385 0.035714 0.079362 -0.045967 -0.000000 0.000000 0.000000 0.000000 0.000000 0.000000 0.000000 
-0.157026 17.134353 -0.928655 -7.560867 82.773611 1.449375 -12.158555 3.329887 -0.549458 2.059402 9.049423 -10.653268 0.506370 2.597983 48.612384 1.340569 -2.563545 23.674233 -2.013401 -0.000000 -60.270600 7.618970 -1.488974 2.983491 18.290728 3.480971 -18.702567 3.515258 1.843020 -2.936307 -1.058080 -6.752845 1.797286 -2.090400 -0.000000 -1.771200 3.909841 -2.259634 -2.814085 -0.077655 -2.717708 -3.543910 -7.477938 -2.799262 0.234330 10.489268 -5.246444 -6.262278 -4.596110 -0.364305 0.355724 0.000000 0.000000 0.000000 -6.232173 4.716534 1.893380 -63.492679 -7.545742 11.216324 -3.262774 -27.302617 -0.005335 3.831676 1.655143 0.055251 -0.088496 0.061060 0.000000 0.000000 0.000000 0.000000 0.000000 0.000000 0.000000 20.551075 -3.443753 0.874971 70.728521 -0.791509 -7.153163 3.807955 14.014941 0.007309 1.138192 4.181508 0.039530 0.078067 -0.048339 -0.000000 0.000000 0.000000 0.000000 0.000000 0.000000 0.000000 
-0.020674 17.145134 -0.872022 -8.079551 82.371757 1.016887 -12.165158 3.192576 -0.508047 2.105164 8.482579 -12.066703 0.616668 2.690555 50.868057 1.475004 -1.181052 23.908903 -1.403300 0.000000 -56.301500 7.577900 -1.483196 2.960131 18.604501 3.559165 -17.910674 3.567129 1.917116 -3.305606 -1.014365 -6.452470 1.402649 -1.964900 -0.000000 -0.584300 4.015298 -2.215323 -2.814186 -0.060652 -2.682149 -3.552529 -7.462416 -2.766179 0.201988 10.506186 -5.146351 -6.294011 -4.590393 -0.364023 0.348616 0.000000 0.000000 0.000000 -6.216136 4.770022 1.925569 -63.818779 -6.575979 11.285057 -3.268948 -26.584350 -0.005028 3.566484 1.870281 0.058515 -0.086093 0.055395 0.000000 0.000000 0.000000 0.000000 0.000000 0.000000 0.000000 20.511955 -3.239470 0.889308 70.845430 -0.245860 -6.503868 3.780935 14.554466 0.007435 1.216320 4.240466 0.043047 0.076605 -0.050977 -0.000000 0.000000 0.000000 0.000000 0.000000 0.000000 0.000000 
0.113440 17.154744 -0.815176 -8.296765 81.968862 0.881807 -12.163643 3.050628 -0.468405 2.091301 7.880771 -13.454530 0.725536 2.783540 52.975200 1.607887 0.561254 23.667789 -0.591900 0.000000 -52.938400 7.546730 -1.471640 2.928088 18.871985 3.596317 -17.089146 3.615042 1.997578 -3.764758 -0.960325 -6.117117 1.077035 178.155500 -0.000000 -0.416900 4.079387 -2.172711 -2.801505 -0.052970 -2.644604 -3.558548 -7.452521 -2.731029 0.167809 10.536782 -5.048552 -6.324192 -4.588365 -0.363988 0.341479 0.000000 0.000000 0.000000 -6.214130 4.818633 1.960891 -64.101808 -5.637874 11.438195 -3.277038 -25.875886 -0.004738 3.292376 2.073388 0.060181 -0.084004 0.049802 0.000000 0.000000 0.000000 0.000000 0.000000 0.000000 0.000000 20.506094 -3.035380 0.903556 70.945636 0.311582 -5.810952 3.748570 15.152616 0.007581 1.282791 4.320245 0.046466 0.074988 -0.053895 -0.000000 0.000000 0.000000 0.000000 0.000000 0.000000 0.000000 
0.245666 17.163558 -0.758015 -8.249207 81.552044 1.007095 -12.156002 2.905111 -0.431446 2.029036 7.264761 -14.803739 0.832443 2.874747 54.905251 1.742054 2.587854 22.975096 0.349800 0.000001 -50.164500 7.523648 -1.455789 2.890737 19.091311 3.612613 -16.252346 3.658482 2.079558 -4.275502 -0.896016 -5.742013 0.812786 178.272800 -0.000000 -1.225900 4.102184 -2.128160 -2.779648 -0.054452 -2.601576 -3.562786 -7.446690 -2.690321 0.131729 10.578954 -4.970241 -6.352475 -4.589120 -0.364175 0.334579 0.000000 0.000000 0.000000 -6.222005 4.843640 1.995418 -64.352851 -4.699641 11.633850 -3.284525 -25.193815 -0.004469 3.019626 2.262332 0.060648 -0.082057 0.044148 0.000000 0.000000 0.000000 0.000000 0.000000 0.000000 0.000000 20.529226 -2.849835 0.919041 71.026771 0.895488 -5.043871 3.711079 15.790959 0.007742 1.321359 4.425117 0.049286 0.073370 -0.057122 -0.000000 0.000000 0.000000 0.000000 0.000000 0.000000 0.000000 
0.376433 17.171875 -0.700548 -7.989072 81.106016 1.343673 -12.143513 2.756542 -0.397509 1.931755 6.654267 -16.106333 0.934691 2.961444 56.630727 1.879272 4.797793 21.872873 1.334000 0.000000 -47.929600 7.506102 -1.437003 2.853081 19.264953 3.634126 -15.415848 3.697183 2.159170 -4.801784 -0.823628 -5.331704 0.596230 178.387700 0.000000 -1.865800 4.088985 -2.079025 -2.754137 -0.063802 -2.551133 -3.565625 -7.444414 -2.642079 0.097706 10.629646 -4.877915 -6.377318 -4.592081 -0.364508 0.328128 0.000000 0.000000 0.000000 -6.241744 4.908642 2.029223 -64.577218 -3.827495 11.911141 -3.293924 -24.493751 -0.004244 2.763926 2.432315 0.059917 -0.080459 0.038633 0.000000 0.000000 0.000000 0.000000 0.000000 0.000000 0.000000 20.572086 -2.643769 0.929842 71.102350 1.469639 -4.296704 3.669451 16.483352 0.007916 1.350606 4.550083 0.051905 0.071634 -0.060653 -0.000000 0.000000 0.000000 0.000000 0.000000 0.000000 0.000000 
0.505988 17.180023 -0.642628 -7.527379 80.618838 1.880808 -12.126475 2.606143 -0.366371 1.804582 6.063680 -17.351984 1.028369 3.040518 58.125772 2.019083 7.074908 20.415608 2.268900 0.000000 -46.084300 7.493030 -1.416940 2.817022 19.391384 3.673068 -14.595399 3.730507 2.231580 -5.302939 -0.744557 -4.884713 0.410224 178.502700 0.000000 -2.337500 4.035606 -2.022076 -2.728482 -0.081603 -2.489840 -3.568061 -7.443339 -2.582901 0.064159 10.687309 -4.817628 -6.400095 -4.595637 -0.364941 0.322163 0.000000 0.000000 0.000000 -6.264321 4.950854 2.056712 -64.790128 -2.936151 12.174781 -3.300189 -23.827342 -0.004046 2.533960 2.587142 0.058785 -0.078827 0.032963 0.000000 0.000000 0.000000 0.000000 0.000000 0.000000 0.000000 20.631446 -2.468259 0.941309 71.165333 2.081596 -3.469022 3.623928 17.190726 0.008099 1.339137 4.701212 0.053227 0.070084 -0.064524 -0.000000 0.000000 0.000000 0.000000 0.000000 0.000000 0.000000 
0.634530 17.188147 -0.584183 -6.912025 80.072217 2.569660 -12.104893 2.457317 -0.334380 1.657694 5.507813 -18.537180 1.108485 3.109474 59.372252 2.158487 9.295167 18.671338 3.070500 -0.000000 -44.477100 7.473433 -1.403233 2.773746 19.492104 3.765279 -14.046478 3.757772 2.239677 -5.214146 -0.644404 -4.393588 -0.054629 178.617900 0.000000 -2.671500 3.947269 -1.956666 -2.703248 -0.106289 -2.417452 -3.570031 -7.442764 -2.512603 0.033775 10.748211 -4.741067 -6.417428 -4.599242 -0.365388 0.317316 0.000000 0.000000 0.000000 -6.290009 5.043996 2.080435 -64.996422 -2.098792 12.467298 -3.306464 -23.147769 -0.003892 2.343696 2.722405 0.057454 -0.077392 0.027429 0.000000 0.000000 0.000000 0.000000 0.000000 0.000000 0.000000 20.695222 -2.268916 0.946499 71.234557 2.686035 -2.670857 3.575419 17.930290 0.008285 1.314351 4.871030 0.054250 0.068519 -0.068707 -0.000000 0.000000 0.000000 0.000000 0.000000 0.000000 0.000000 
